<svg width="52" height="44" viewBox="0 0 52 44" fill="none" xmlns="http://www.w3.org/2000/svg">
<path d="M20.8137 0.438569C10.6704 2.12736 2.50256 9.07242 0.516238 17.686C-2.48387 30.6746 7.96768 42.2251 22.127 43.9673C24.1904 44.2336 26.053 42.8372 26.053 41.0645L26.053 41.0034C26.053 39.5524 24.8113 38.3411 23.1397 38.1236C13.9842 36.927 6.94522 30.1839 6.94522 22.0653C6.94522 12.5797 16.5632 4.96539 27.9373 5.89643C37.8733 6.714 45.1522 14.3081 45.1522 22.7843V24.274C45.1522 26.3103 43.2049 27.9659 40.8105 27.9659C38.416 27.9659 36.4677 26.3103 36.4677 24.274V13.2028C36.4677 12.3873 35.6904 11.7261 34.7299 11.7261L31.2587 11.7264C30.4665 11.7264 29.826 12.1866 29.6176 12.8031C26.9203 11.6831 23.7302 11.2932 20.2764 12.3324C16.0704 13.5981 12.8825 16.8411 12.2747 20.5957C11.2453 26.9572 17.0299 32.3951 24.312 32.3951C27.1819 32.3951 29.7858 31.5153 31.8655 30.1016C34.4705 32.9869 38.9457 34.59 43.74 33.5575C48.7525 32.5708 52.0956 28.4041 51.9979 24.0807V22.1541C51.9979 8.4004 37.4641 -2.33263 20.8137 0.438569ZM24.2111 26.5789C21.3379 26.5789 19.001 24.5914 19.001 22.1495C19.001 19.7076 21.3379 17.7201 24.2111 17.7201C27.0842 17.7201 29.4211 19.7076 29.4211 22.1495C29.4211 24.5914 27.1851 26.5789 24.2111 26.5789Z" fill="white"/>
</svg>
