<svg width="121" height="97" viewBox="0 0 121 97" fill="none" xmlns="http://www.w3.org/2000/svg">
<path d="M70.2963 36.6863C70.2963 31.9002 66.9375 29.2581 61.0383 29.2581H50.187V44.6776H59.3374C66.3993 44.656 70.2963 41.7973 70.2963 36.6863ZM109.804 33.9143C107.759 27.2224 107.457 19.0145 107.694 12.6691C107.931 6.06385 102.807 0 95.9173 0H25.1258C18.2146 0 13.1119 6.08551 13.3488 12.6691C13.5641 19.0145 13.2842 27.2224 11.2388 33.9143C9.17189 40.6278 5.70552 44.8725 0 45.4139V51.5861C5.68399 52.1275 9.17189 56.3722 11.2388 63.0857C13.2842 69.7776 13.5856 77.9855 13.3488 84.3309C13.1119 90.9361 18.2361 97 25.1258 97H95.8957C102.807 97 107.91 90.9145 107.673 84.3309C107.457 77.9855 107.737 69.7776 109.783 63.0857C111.85 56.3722 115.316 52.1275 121 51.5861V45.4139C115.338 44.8725 111.85 40.6278 109.804 33.9143ZM63.1267 74.3039H42.0486V22.6961H63.019C72.3416 22.6961 78.4562 27.7638 78.4562 35.5602C78.4562 41.0393 74.3439 45.9337 69.0906 46.7783V47.0598C76.2386 47.8395 81.0399 52.8205 81.0399 59.6856C81.0399 68.8031 74.3009 74.3039 63.1267 74.3039ZM60.9737 50.7631H50.187V67.7419H61.4473C68.8107 67.7419 72.7077 64.7749 72.7077 59.1875C72.7077 53.6218 68.703 50.7631 60.9737 50.7631Z" fill="#533B78"/>
</svg>
