<svg width="20" height="17" viewBox="0 0 20 17" fill="none" xmlns="http://www.w3.org/2000/svg">
<path d="M6.68952 13.6884C6.68952 13.7587 6.59677 13.8149 6.47984 13.8149C6.34677 13.8255 6.25403 13.7692 6.25403 13.6884C6.25403 13.6181 6.34677 13.5618 6.46371 13.5618C6.58468 13.5513 6.68952 13.6075 6.68952 13.6884ZM5.43548 13.5302C5.40726 13.6005 5.4879 13.6813 5.60887 13.7024C5.71371 13.7376 5.83468 13.7024 5.85887 13.6321C5.88307 13.5618 5.80645 13.481 5.68548 13.4493C5.58065 13.4247 5.46371 13.4599 5.43548 13.5302ZM7.21774 13.4704C7.10081 13.495 7.02016 13.5618 7.03226 13.6427C7.04435 13.713 7.14919 13.7587 7.27016 13.7341C7.3871 13.7095 7.46774 13.6427 7.45565 13.5724C7.44355 13.5056 7.33468 13.4599 7.21774 13.4704ZM9.87097 0C4.27823 0 0 3.70156 0 8.5772C0 12.4756 2.81452 15.8116 6.83468 16.9857C7.35081 17.0665 7.53226 16.7888 7.53226 16.5603C7.53226 16.3424 7.52016 15.1402 7.52016 14.402C7.52016 14.402 4.69758 14.9293 4.10484 13.3544C4.10484 13.3544 3.64516 12.3315 2.98387 12.0678C2.98387 12.0678 2.06048 11.516 3.04839 11.5265C3.04839 11.5265 4.05242 11.5968 4.60484 12.4334C5.4879 13.7903 6.96774 13.4001 7.54436 13.1681C7.6371 12.6057 7.89919 12.2155 8.18952 11.9835C5.93548 11.7655 3.66129 11.4808 3.66129 8.09913C3.66129 7.13244 3.96774 6.64733 4.6129 6.02865C4.50806 5.80016 4.16532 4.85807 4.71774 3.6418C5.56048 3.41331 7.5 4.59091 7.5 4.59091C8.30645 4.39406 9.17339 4.29212 10.0323 4.29212C10.8911 4.29212 11.7581 4.39406 12.5645 4.59091C12.5645 4.59091 14.504 3.40979 15.3468 3.6418C15.8992 4.86159 15.5565 5.80016 15.4516 6.02865C16.0968 6.65085 16.4919 7.13595 16.4919 8.09913C16.4919 11.4913 14.1169 11.762 11.8629 11.9835C12.2339 12.2612 12.5484 12.7885 12.5484 13.6146C12.5484 14.7992 12.5363 16.2651 12.5363 16.5533C12.5363 16.7818 12.7218 17.0595 13.2339 16.9786C17.2661 15.8116 20 12.4756 20 8.5772C20 3.70156 15.4637 0 9.87097 0ZM3.91935 12.1241C3.86694 12.1592 3.87903 12.2401 3.94758 12.3069C4.0121 12.3631 4.10484 12.3877 4.15726 12.342C4.20968 12.3069 4.19758 12.226 4.12903 12.1592C4.06452 12.103 3.97177 12.0784 3.91935 12.1241ZM3.48387 11.8394C3.45565 11.8851 3.49597 11.9413 3.57661 11.9764C3.64113 12.0116 3.72177 12.0011 3.75 11.9518C3.77823 11.9061 3.7379 11.8499 3.65726 11.8147C3.57661 11.7937 3.5121 11.8042 3.48387 11.8394ZM4.79032 13.0908C4.72581 13.1365 4.75 13.2419 4.84274 13.3087C4.93548 13.3896 5.05242 13.4001 5.10484 13.3439C5.15726 13.2982 5.13306 13.1927 5.05242 13.1259C4.96371 13.0451 4.84274 13.0345 4.79032 13.0908ZM4.33065 12.574C4.26613 12.6092 4.26613 12.7006 4.33065 12.7814C4.39516 12.8623 4.50403 12.8974 4.55645 12.8623C4.62097 12.8166 4.62097 12.7252 4.55645 12.6443C4.5 12.5635 4.39516 12.5283 4.33065 12.574Z" fill="#2B313C"/>
</svg>
