<svg width="108" height="102" viewBox="0 0 108 102" fill="none" xmlns="http://www.w3.org/2000/svg">
<path d="M96.4286 0H11.5714C5.18304 0 0 4.89509 0 10.9286V91.0714C0 97.1049 5.18304 102 11.5714 102H96.4286C102.817 102 108 97.1049 108 91.0714V10.9286C108 4.89509 102.817 0 96.4286 0ZM58.7732 79.5509C58.7732 89.4777 52.6018 94.0085 43.6098 94.0085C35.4857 94.0085 30.7848 90.0469 28.3741 85.2429L36.6429 80.5299C38.2339 83.1937 39.6804 85.4478 43.1759 85.4478C46.5027 85.4478 48.6241 84.2183 48.6241 79.4143V46.8335H58.7732V79.5509ZM82.7839 94.0085C73.358 94.0085 67.2589 89.7737 64.2938 84.2183L72.5625 79.7103C74.7321 83.0571 77.5768 85.5388 82.567 85.5388C86.7616 85.5388 89.4616 83.558 89.4616 80.8031C89.4616 77.5246 86.7134 76.3634 82.0607 74.4281L79.5295 73.4036C72.2009 70.4665 67.3554 66.7554 67.3554 58.946C67.3554 51.7513 73.1652 46.2871 82.2054 46.2871C88.6661 46.2871 93.2946 48.4045 96.6214 53.9598L88.7143 58.7411C86.9786 55.804 85.0982 54.6429 82.1813 54.6429C79.2161 54.6429 77.3357 56.4188 77.3357 58.7411C77.3357 61.6098 79.2161 62.771 83.5795 64.5696L86.1107 65.5942C94.7411 69.0777 99.5866 72.6522 99.5866 80.6665C99.5866 89.2728 92.4027 94.0085 82.7839 94.0085Z" fill="#EFD81D"/>
</svg>
