<svg width="117" height="111" viewBox="0 0 117 111" fill="none" xmlns="http://www.w3.org/2000/svg">
<path d="M116.943 25.1119C116.925 25.0615 116.903 25.0123 116.878 24.9645C116.844 24.8712 116.802 24.7806 116.753 24.6935C116.715 24.6393 116.672 24.5879 116.626 24.5395C116.574 24.4684 116.518 24.4003 116.456 24.3358C116.402 24.2881 116.334 24.249 116.275 24.2057C116.208 24.1524 116.137 24.1032 116.064 24.0583L93.4169 12.0434C93.1308 11.8912 92.8062 11.8111 92.4758 11.8111C92.1455 11.8111 91.8209 11.8912 91.5348 12.0434L68.8834 24.0648C68.8107 24.1102 68.7415 24.1601 68.6764 24.2144C68.6123 24.2541 68.551 24.2975 68.4929 24.3444C68.4313 24.4078 68.3746 24.4752 68.3235 24.5461C68.2835 24.5981 68.2317 24.6436 68.1964 24.7C68.1489 24.7876 68.108 24.8781 68.0741 24.971C68.0553 25.0208 68.0247 25.0664 68.0082 25.1184C67.9651 25.2654 67.9429 25.417 67.9423 25.5693V48.385L49.0693 58.3988V13.7539C49.0697 13.6009 49.0476 13.4484 49.0035 13.3008C48.9894 13.2488 48.9564 13.2033 48.9376 13.1534C48.9047 13.0609 48.8638 12.971 48.8153 12.8846C48.7823 12.8282 48.7282 12.7827 48.6882 12.7285C48.6365 12.6573 48.5799 12.5893 48.5188 12.5247C48.4601 12.4784 48.3989 12.435 48.3353 12.3946C48.2694 12.3419 48.2003 12.2927 48.1283 12.2472L25.4746 0.232361C25.1884 0.0801387 24.8639 0 24.5335 0C24.2031 0 23.8786 0.0801387 23.5924 0.232361L0.943422 12.2472C0.869889 12.2915 0.800623 12.3416 0.736388 12.3968C0.671506 12.4365 0.609428 12.4799 0.550528 12.5269C0.489679 12.5903 0.433856 12.6577 0.38349 12.7285C0.341142 12.7827 0.289384 12.8282 0.254094 12.8846C0.205883 12.9709 0.165743 13.0608 0.134108 13.1534C0.108413 13.2006 0.0856341 13.2491 0.0658814 13.2987C0.0225995 13.4471 0.000455626 13.6002 6.97693e-06 13.7539V85.2316C-0.000894842 85.5369 0.0856435 85.8369 0.250879 86.1015C0.416115 86.3661 0.654196 86.5857 0.941069 86.7384L46.2297 110.768C46.3304 110.815 46.435 110.854 46.5426 110.885C46.592 110.902 46.639 110.928 46.6908 110.941C47.0068 111.02 47.3394 111.02 47.6554 110.941C47.7024 110.931 47.7424 110.907 47.7848 110.894C47.8984 110.861 48.0086 110.819 48.1142 110.768L93.4169 86.7384C93.7038 86.5857 93.9419 86.3661 94.1071 86.1015C94.2723 85.8369 94.3589 85.5369 94.358 85.2316V62.4117L116.059 50.8976C116.347 50.7441 116.587 50.5227 116.752 50.2561C116.917 49.9894 117.003 49.6871 117 49.3801V25.565C117.001 25.4124 116.982 25.2602 116.943 25.1119ZM24.5311 3.74663L43.3971 13.7518L24.5288 23.7634L5.6652 13.7539L24.5311 3.74663ZM45.2933 16.7544V60.3998L34.3464 66.2078L26.4203 70.4136V26.7747L37.3672 20.9667L45.2933 16.7544ZM45.2933 106.244L3.77367 84.2257V16.7631L11.6998 20.9646L22.6443 26.7747V73.4249C22.6491 73.4904 22.6585 73.5556 22.6725 73.62C22.6782 73.706 22.6908 73.7916 22.7102 73.8758C22.7341 73.943 22.764 74.0083 22.7996 74.071C22.8258 74.1457 22.8588 74.2182 22.8984 74.2878C22.9419 74.3466 22.989 74.403 23.0396 74.4569C23.0866 74.5208 23.1385 74.5817 23.1948 74.639C23.2489 74.6867 23.3172 74.7213 23.376 74.7647C23.4402 74.8161 23.5078 74.8639 23.5783 74.9078L45.2675 86.2202L45.2933 106.244ZM47.1755 83.2263L28.3401 73.4011L48.1236 62.906L69.8292 51.3919L88.681 61.3927L74.8474 68.6684L47.1755 83.2263ZM90.5867 84.217L49.0646 106.254V86.2419L79.8186 70.0689L90.5867 64.3997V84.217ZM90.5867 58.3901L82.6606 54.1994L71.7137 48.3915V28.572L79.6398 32.7778L90.5867 38.5901V58.3901ZM92.4688 35.5658L73.6005 25.5563L92.4688 15.549L111.332 25.5542L92.4688 35.5658ZM94.3509 58.3901V38.5901L105.321 32.7778L113.245 28.572V48.385L94.3509 58.3901Z" fill="#EB4E43"/>
</svg>
