<svg width="44" height="45" viewBox="0 0 44 45" fill="none" xmlns="http://www.w3.org/2000/svg">
<path d="M19.2844 43.9888C13.3031 38.3316 0 24.6204 0 16.9188C0 7.57468 9.84958 0 22 0C34.1458 0 44 7.57468 44 16.9188C44 24.6204 30.5938 38.3316 24.7156 43.9888C23.3062 45.3371 20.6938 45.3371 19.2844 43.9888ZM22 22.5584C26.0448 22.5584 29.3333 20.0294 29.3333 16.9188C29.3333 13.8082 26.0448 11.2792 22 11.2792C17.9552 11.2792 14.6667 13.8082 14.6667 16.9188C14.6667 20.0294 17.9552 22.5584 22 22.5584Z" fill="white"/>
</svg>
