<svg width="512" height="512" viewBox="0 0 512 512" fill="none" xmlns="http://www.w3.org/2000/svg">
<path d="M223.695 130.8L149.095 7.77C147.095 2.949 141.895 0 136.295 0H16.0254C3.0754 0 -4.5046 14.58 2.9254 25.18L114.225 184.08C143.895 156.4 181.695 137.3 223.695 130.8ZM255.995 160C158.745 160 79.9954 238.75 79.9954 336C79.9954 433.25 158.795 512 255.995 512C353.195 512 431.995 433.25 431.995 336C431.995 238.75 353.295 160 255.995 160ZM348.495 317.3L310.615 354.3L319.49 406.55C321.115 415.8 311.24 423.05 302.86 418.55L255.98 393.93L209.095 418.5C200.72 423 190.845 415.75 192.465 406.5L201.34 354.25L163.46 317.25C156.595 310.6 160.495 299 169.895 297.6L222.275 289.975L245.695 242.5C247.695 238.25 251.82 236.125 255.945 236.125C260.07 236.125 264.195 238.3 266.195 242.5L289.695 290L342.075 297.625C351.595 299 355.395 310.6 348.495 317.3ZM495.095 0H375.695C370.074 0 364.865 2.949 361.975 7.77L288.215 129.87C330.215 136.37 368.095 155.49 397.715 183.25L509.015 24.35C516.495 14.58 508.895 0 495.095 0Z" fill="#075FE4"/>
</svg>
