<svg width="121" height="97" viewBox="0 0 121 97" fill="none" xmlns="http://www.w3.org/2000/svg">
<path d="M60.5 4.84136C92.9053 4.84136 117.824 25.6477 117.824 48.5C117.824 71.3524 92.8864 92.1587 60.5 92.1587C28.0947 92.1587 3.17625 71.3524 3.17625 48.5C3.17625 25.6477 28.1136 4.84136 60.5 4.84136ZM60.5 0C27.0927 0 0 21.6996 0 48.5C0 75.3004 27.0927 97 60.5 97C93.9073 97 121 75.3004 121 48.5C121 21.6996 93.9073 0 60.5 0ZM41.2534 44.6096C39.7598 56.2808 34.485 55.0704 28.0002 55.0704L30.5903 34.7252C37.7747 34.7252 42.6525 33.5437 41.2534 44.6096ZM18.4147 75.675H25.3533L26.9981 62.7647C34.7686 62.7647 39.5897 63.6292 44.0516 57.2606C48.9861 50.3443 50.2717 38.0392 46.7552 31.8723C44.9213 28.6447 41.9719 27.0597 37.9638 27.0597H24.597L18.4147 75.675ZM53.5236 14.1206H60.4244L58.7795 27.0309C64.735 27.0309 70.2556 26.3681 72.9214 30.1144C75.7195 34.0336 74.3772 39.0478 71.3522 62.7071H64.3569C67.2684 39.8259 67.8167 37.924 66.758 36.1949C65.737 34.5235 63.4116 34.8693 57.7964 34.8693L54.242 62.7071H47.3413L53.5236 14.1206ZM95.4766 44.6096C93.9641 56.4537 88.538 55.0704 82.2233 55.0704L84.8134 34.7252C92.0356 34.7252 96.8756 33.5437 95.4766 44.6096ZM72.6378 75.675H79.5953L81.2402 62.7647C89.4077 62.7647 93.9263 63.4852 98.2936 57.2606C103.228 50.3443 104.514 38.0392 100.997 31.8723C99.1633 28.6447 96.2139 27.0597 92.2058 27.0597H78.8391L72.6378 75.675Z" fill="#8A98CA"/>
</svg>
