<svg width="118" height="97" viewBox="0 0 118 97" fill="none" xmlns="http://www.w3.org/2000/svg">
<path d="M96.382 31.434C95.1375 31.0443 93.893 30.6762 92.6484 30.3298C92.8559 29.5287 93.0402 28.7277 93.2246 27.9266C96.0594 15.0228 94.1926 4.65218 87.9008 1.23138C81.8395 -2.03787 71.9523 1.36128 61.95 9.54522C60.959 10.3463 59.991 11.1907 59.0691 12.035C58.4469 11.4721 57.8016 10.9092 57.1562 10.3679C46.6699 1.62109 36.1605 -2.05952 29.8688 1.38293C23.8305 4.67383 22.0328 14.4383 24.568 26.6492C24.8215 27.8617 25.098 29.0524 25.4207 30.2649C23.9457 30.6546 22.4937 31.0876 21.134 31.5423C8.82695 35.5476 0 41.8696 0 48.4081C0 55.1631 9.40313 61.9397 22.1941 66.0534C23.2313 66.3781 24.2684 66.7029 25.3285 66.9843C24.9828 68.2834 24.6832 69.5608 24.4066 70.8814C21.9867 82.8975 23.8766 92.4238 29.9148 95.6931C36.1375 99.0706 46.6008 95.6065 56.7875 87.2277C57.5941 86.5565 58.4008 85.8637 59.2074 85.1276C60.2215 86.0585 61.2816 86.9462 62.3418 87.8122C72.2059 95.7797 81.9547 99.0056 87.9699 95.7364C94.1926 92.3589 96.2207 82.1181 93.5934 69.6474C93.3859 68.6947 93.1555 67.7205 92.902 66.7245C93.6395 66.5297 94.3539 66.3132 95.0684 66.0967C108.366 61.9614 118 55.2713 118 48.4081C118 41.848 108.92 35.4827 96.382 31.434ZM65.1996 13.0526C73.773 6.03782 81.7703 3.28819 85.4117 5.2584C89.3066 7.35851 90.8047 15.8456 88.3617 26.9956C88.2004 27.7317 88.0391 28.4462 87.8316 29.1607C82.7152 28.0782 77.5297 27.2987 72.3211 26.8657C69.325 22.8387 66.0523 18.9849 62.5031 15.3692C63.402 14.5682 64.2777 13.8104 65.1996 13.0526ZM38.5344 59.6448C39.7098 61.5284 40.9082 63.412 42.1758 65.2523C38.5805 64.8842 35.0082 64.343 31.482 63.6285C32.4961 60.5108 33.7637 57.2849 35.2387 53.994C36.2988 55.8992 37.382 57.7828 38.5344 59.6448ZM31.5512 33.5991C34.8699 32.9062 38.3961 32.3433 42.0605 31.9103C40.8391 33.7073 39.6406 35.5476 38.5113 37.4096C37.382 39.2499 36.2758 41.1335 35.2387 43.0387C33.7867 39.8128 32.5652 36.6518 31.5512 33.5991ZM37.866 48.5163C39.3871 45.5286 41.0465 42.6057 42.798 39.7262C44.5496 36.8467 46.4395 34.0537 48.4215 31.3041C51.8785 31.0659 55.4047 30.936 59 30.936C62.5953 30.936 66.1445 31.0659 69.5785 31.3041C71.5375 34.0321 73.4043 36.825 75.1789 39.6829C76.9535 42.5408 78.6129 45.4636 80.1801 48.4297C78.6359 51.4175 76.9766 54.362 75.202 57.2632C73.4504 60.1427 71.5836 62.9357 69.6246 65.7069C66.1906 65.9451 62.6184 66.0534 59 66.0534C55.3816 66.0534 51.8785 65.9451 48.4906 65.7503C46.4855 63.0006 44.5957 60.186 42.8211 57.3065C41.0465 54.427 39.4102 51.5041 37.866 48.5163ZM79.4887 59.6015C80.6641 57.6962 81.7703 55.7693 82.8535 53.8208C84.3285 56.9601 85.6191 60.1427 86.7484 63.412C83.1762 64.1698 79.5578 64.7543 75.9164 65.144C77.1609 63.3254 78.3363 61.4634 79.4887 59.6015ZM82.8074 43.0387C81.7242 41.1335 80.618 39.2282 79.4656 37.3663C78.3363 35.526 77.1609 33.7073 75.9395 31.9103C79.65 32.3433 83.1992 32.9279 86.518 33.6424C85.4578 36.8467 84.2133 39.9644 82.8074 43.0387ZM59.0461 18.6818C61.466 21.15 63.7477 23.748 65.868 26.4327C61.3047 26.2379 56.7184 26.2379 52.1551 26.4327C54.4137 23.6398 56.7414 21.0417 59.0461 18.6818ZM32.3117 5.40995C36.1836 3.28819 44.7801 6.31928 53.8375 13.8537C54.4137 14.33 54.9898 14.8496 55.5891 15.3692C52.0168 18.9849 48.7211 22.8387 45.702 26.8657C40.4934 27.2987 35.3309 28.0565 30.2145 29.1174C29.9148 28.0132 29.6613 26.8874 29.4078 25.7615C27.2414 15.2826 28.6703 7.38016 32.3117 5.40995ZM26.6652 62.481C25.6973 62.2212 24.7523 61.9397 23.8074 61.6366C18.8984 60.186 13.3211 57.8911 9.28789 54.8816C6.96016 53.3661 5.39297 51.0278 4.95508 48.4081C4.95508 44.446 12.2379 39.3798 22.7473 35.9373C24.0609 35.5043 25.3977 35.1146 26.7344 34.7466C28.3016 39.4447 30.1914 44.0563 32.3809 48.5163C30.1684 53.0413 28.2555 57.7179 26.6652 62.481ZM53.5379 83.6986C49.7352 86.9679 45.3332 89.5659 40.5395 91.3413C37.9812 92.4888 35.0312 92.597 32.4039 91.6228C28.7395 89.6309 27.2184 81.9882 29.2926 71.7042C29.5461 70.4917 29.8227 69.2793 30.1453 68.0885C35.3078 69.1277 40.5164 69.8422 45.7941 70.2103C48.8363 74.2589 52.1781 78.1344 55.7504 81.7717C55.0129 82.4429 54.2754 83.0924 53.5379 83.6986ZM59.1844 78.4375C56.8336 76.0559 54.4828 73.4146 52.2012 70.5783C54.4137 70.6649 56.6953 70.7082 59 70.7082C61.3738 70.7082 63.7016 70.6649 66.0062 70.5567C63.8859 73.3063 61.6043 75.926 59.1844 78.4375ZM89.3066 84.9327C89.0992 87.5741 87.7164 90.0423 85.5039 91.7094C81.8395 93.7012 74.0266 91.1031 65.5914 84.3048C64.6234 83.5254 63.6555 82.681 62.6645 81.815C66.1906 78.1561 69.4402 74.2806 72.3902 70.2103C77.668 69.7989 82.9227 69.0411 88.1082 67.937C88.3387 68.8246 88.5461 69.7123 88.7305 70.5783C89.8598 75.2549 90.0441 80.1263 89.3066 84.9327ZM93.5012 61.6583C92.8559 61.8531 92.2105 62.048 91.5422 62.2212C89.9289 57.5014 87.9469 52.8898 85.6652 48.4081C87.8777 43.9914 89.7445 39.4447 91.3117 34.7899C92.5102 35.1146 93.6625 35.461 94.7688 35.8074C105.509 39.2715 113.045 44.4244 113.045 48.3648C113.045 52.6083 105.002 58.0859 93.5012 61.6583ZM59 58.4107C64.8309 58.4107 69.5555 53.9723 69.5555 48.4947C69.5555 43.0171 64.8309 38.5787 59 38.5787C53.1691 38.5787 48.4445 43.0171 48.4445 48.4947C48.4445 53.9723 53.1691 58.4107 59 58.4107Z" fill="#03C8E9"/>
</svg>
