<svg width="30" height="20" viewBox="0 0 30 20" fill="none" xmlns="http://www.w3.org/2000/svg">
<path d="M29.9775 1.43959L26.2274 17.6547C26.1395 18.0349 25.7952 18.3664 25.2916 18.5551C25.0078 18.6613 24.6898 18.7151 24.3728 18.7151C24.1274 18.7151 23.8854 18.6832 23.6527 18.6185L16.4688 16.6224L13.4887 19.6025C13.2601 19.8633 12.8793 20 12.4691 20C11.7952 20 11.2503 19.6367 11.2503 19.1875V15.4304C11.2503 15.1525 11.3893 14.8824 11.6454 14.6632L24.3758 3.74978L7.16617 14.0741L1.15366 12.4022C0.49434 12.2186 0.0475181 11.8046 0.00357122 11.2929C-0.0403756 10.7811 0.324032 10.3663 0.944619 10.1299L27.1955 0.164964C27.8219 -0.0736716 28.5948 -0.0517182 29.1878 0.219887C29.7808 0.491492 30.0888 0.965366 29.9775 1.43959Z" fill="white"/>
</svg>
