<svg width="120" height="111" viewBox="0 0 120 111" fill="none" xmlns="http://www.w3.org/2000/svg">
<path d="M120 17.3438V27.75C120 37.3324 93.1339 45.0938 60 45.0938C26.8661 45.0938 0 37.3324 0 27.75V17.3438C0 7.76566 26.8661 0 60 0C93.1339 0 120 7.76566 120 17.3438ZM105.321 46.5463C110.652 44.942 116.009 42.8824 120 40.3459V62.4375C120 72.0199 93.1339 79.7812 60 79.7812C26.8661 79.7812 0 72.0199 0 62.4375V40.3459C3.99911 42.8824 9.1125 44.942 14.692 46.5463C26.6946 50.015 42.7232 52.0312 60 52.0312C77.2768 52.0312 93.2946 50.015 105.321 46.5463ZM14.692 81.2338C26.6946 84.7025 42.7232 86.7188 60 86.7188C77.2768 86.7188 93.2946 84.7025 105.321 81.2338C110.652 79.6295 116.009 77.5699 120 75.0334V93.6562C120 103.239 93.1339 111 60 111C26.8661 111 0 103.239 0 93.6562V75.0334C3.99911 77.5699 9.1125 79.6295 14.692 81.2338Z" fill="#887C7C"/>
<path d="M45.3695 74.8034C43.9322 74.8034 42.6442 74.5701 41.5055 74.1034C40.3668 73.6368 39.4522 72.9461 38.7615 72.0314C38.0895 71.1168 37.7348 70.0154 37.6975 68.7274H42.7935C42.8682 69.4554 43.1202 70.0154 43.5495 70.4074C43.9788 70.7808 44.5388 70.9674 45.2295 70.9674C45.9388 70.9674 46.4988 70.8088 46.9095 70.4914C47.3202 70.1554 47.5255 69.6981 47.5255 69.1194C47.5255 68.6341 47.3575 68.2328 47.0215 67.9154C46.7042 67.5981 46.3028 67.3368 45.8175 67.1314C45.3508 66.9261 44.6788 66.6928 43.8015 66.4314C42.5322 66.0394 41.4962 65.6474 40.6935 65.2554C39.8908 64.8634 39.2002 64.2848 38.6215 63.5194C38.0428 62.7541 37.7535 61.7554 37.7535 60.5234C37.7535 58.6941 38.4162 57.2661 39.7415 56.2394C41.0668 55.1941 42.7935 54.6714 44.9215 54.6714C47.0868 54.6714 48.8322 55.1941 50.1575 56.2394C51.4828 57.2661 52.1922 58.7034 52.2855 60.5514H47.1055C47.0682 59.9168 46.8348 59.4221 46.4055 59.0674C45.9762 58.6941 45.4255 58.5074 44.7535 58.5074C44.1748 58.5074 43.7082 58.6661 43.3535 58.9834C42.9988 59.2821 42.8215 59.7208 42.8215 60.2994C42.8215 60.9341 43.1202 61.4288 43.7175 61.7834C44.3148 62.1381 45.2482 62.5208 46.5175 62.9314C47.7868 63.3608 48.8135 63.7714 49.5975 64.1634C50.4002 64.5554 51.0908 65.1248 51.6695 65.8714C52.2482 66.6181 52.5375 67.5794 52.5375 68.7554C52.5375 69.8754 52.2482 70.8928 51.6695 71.8074C51.1095 72.7221 50.2882 73.4501 49.2055 73.9914C48.1228 74.5328 46.8442 74.8034 45.3695 74.8034ZM69.484 77.9674L66.964 74.5794C66.2174 74.7288 65.4894 74.8034 64.78 74.8034C62.932 74.8034 61.2334 74.3741 59.684 73.5154C58.1534 72.6568 56.9307 71.4621 56.016 69.9314C55.12 68.3821 54.672 66.6461 54.672 64.7234C54.672 62.8008 55.12 61.0741 56.016 59.5434C56.9307 58.0128 58.1534 56.8181 59.684 55.9594C61.2334 55.1008 62.932 54.6714 64.78 54.6714C66.628 54.6714 68.3174 55.1008 69.848 55.9594C71.3974 56.8181 72.6107 58.0128 73.488 59.5434C74.384 61.0741 74.832 62.8008 74.832 64.7234C74.832 66.4034 74.4867 67.9434 73.796 69.3434C73.124 70.7248 72.1814 71.8728 70.968 72.7874L75.28 77.9674H69.484ZM59.572 64.7234C59.572 66.4594 60.0387 67.8501 60.972 68.8954C61.924 69.9221 63.1934 70.4354 64.78 70.4354C66.348 70.4354 67.5987 69.9128 68.532 68.8674C69.484 67.8221 69.96 66.4408 69.96 64.7234C69.96 62.9874 69.484 61.6061 68.532 60.5794C67.5987 59.5341 66.348 59.0114 64.78 59.0114C63.1934 59.0114 61.924 59.5248 60.972 60.5514C60.0387 61.5781 59.572 62.9688 59.572 64.7234ZM82.3385 70.9114H88.6105V74.6074H77.5505V54.9514H82.3385V70.9114Z" fill="white"/>
</svg>
