<svg width="50" height="41" viewBox="0 0 50 41" fill="none" xmlns="http://www.w3.org/2000/svg">
<path d="M44.8605 10.2179C44.8923 10.6663 44.8923 11.1149 44.8923 11.5633C44.8923 25.2406 34.5814 41 15.7361 41C9.93021 41 4.53683 39.3023 0 36.3555C0.824906 36.4516 1.61798 36.4836 2.47462 36.4836C7.26517 36.4836 11.6751 34.8501 15.1967 32.0633C10.6916 31.9672 6.91624 28.9883 5.61545 24.8883C6.25002 24.9843 6.8845 25.0484 7.55081 25.0484C8.47083 25.0484 9.39095 24.9202 10.2475 24.6961C5.55207 23.7351 2.03038 19.5711 2.03038 14.5422V14.4141C3.39454 15.1828 4.98098 15.6633 6.66233 15.7273C3.90216 13.8694 2.09386 10.6984 2.09386 7.11087C2.09386 5.18903 2.60138 3.42731 3.48976 1.8898C8.53421 8.16792 16.1168 12.2678 24.6192 12.7164C24.4606 11.9476 24.3654 11.1469 24.3654 10.3461C24.3654 4.64448 28.934 0 34.6129 0C37.5634 0 40.2284 1.24922 42.1003 3.26719C44.4162 2.81877 46.637 1.95388 48.6041 0.768756C47.8426 3.17115 46.2246 5.18912 44.099 6.47029C46.1612 6.24618 48.16 5.66949 50 4.86878C48.6043 6.9187 46.8593 8.74441 44.8605 10.2179Z" fill="white"/>
</svg>
