<svg width="28" height="17" viewBox="0 0 28 17" fill="none" xmlns="http://www.w3.org/2000/svg">
<path fill-rule="evenodd" clip-rule="evenodd" d="M3.75784 8.55452H5.19968L5.71788 10.6703L6.47675 8.55452H7.90775L8.67312 10.6736L9.19565 8.55452H10.631L9.5469 12.3478H8.05735L7.19442 9.95945L6.33798 12.3478H4.85061L3.75784 8.55452ZM2.34202 0.951172H25.3768C26.3698 0.951172 27.1807 1.5767 27.1807 2.34272V14.8232C27.1807 15.5875 26.3698 16.2147 25.3768 16.2147H2.34202C1.34899 16.2147 0.538086 15.5875 0.538086 14.8232V2.34272C0.538086 1.5767 1.34899 0.951172 2.34202 0.951172ZM26.1162 4.84651H1.68506V14.9587C1.68506 15.0657 1.73926 15.1594 1.83032 15.2313C1.92139 15.3015 2.04497 15.3433 2.18374 15.3433H25.6088C25.7476 15.3433 25.869 15.3015 25.9622 15.2313C26.0555 15.1594 26.1075 15.0657 26.1075 14.9587V4.84651H26.1162ZM23.6596 2.51499C24.1518 2.51499 24.5507 2.82274 24.5507 3.2024C24.5507 3.58207 24.1518 3.88982 23.6596 3.88982C23.1674 3.88982 22.7685 3.58207 22.7685 3.2024C22.7685 2.82274 23.1696 2.51499 23.6596 2.51499ZM17.6234 2.51499C18.1156 2.51499 18.5145 2.82274 18.5145 3.2024C18.5145 3.58207 18.1156 3.88982 17.6234 3.88982C17.1312 3.88982 16.7323 3.58207 16.7323 3.2024C16.7323 2.82274 17.1312 2.51499 17.6234 2.51499ZM20.6415 2.51499C21.1337 2.51499 21.5326 2.82274 21.5326 3.2024C21.5326 3.58207 21.1337 3.88982 20.6415 3.88982C20.1493 3.88982 19.7504 3.58207 19.7504 3.2024C19.7504 2.82274 20.1493 2.51499 20.6415 2.51499ZM17.515 8.55452H18.9568L19.475 10.6703L20.2339 8.55452H21.6649L22.4303 10.6736L22.9528 8.55452H24.3881L23.304 12.3478H21.8145L20.9516 9.95945L20.0951 12.3478H18.6077L17.515 8.55452ZM10.6375 8.55452H12.0793L12.5975 10.6703L13.3564 8.55452H14.7874L15.5528 10.6736L16.0753 8.55452H17.5106L16.4265 12.3478H14.937L14.0741 9.95945L13.2176 12.3478H11.7303L10.6375 8.55452Z" fill="#2B313C"/>
</svg>
